<svg width="17" height="16" viewBox="0 0 17 16" fill="none" xmlns="http://www.w3.org/2000/svg">
<path d="M4.83333 8.83317V2.1665C4.83333 1.94549 4.74554 1.73353 4.58926 1.57725C4.43298 1.42097 4.22101 1.33317 4 1.33317H2.33333C2.11232 1.33317 1.90036 1.42097 1.74408 1.57725C1.5878 1.73353 1.5 1.94549 1.5 2.1665V7.99984C1.5 8.22085 1.5878 8.43281 1.74408 8.58909C1.90036 8.74537 2.11232 8.83317 2.33333 8.83317H4.83333ZM4.83333 8.83317C5.71739 8.83317 6.56523 9.18436 7.19036 9.80948C7.81548 10.4346 8.16667 11.2824 8.16667 12.1665V12.9998C8.16667 13.4419 8.34226 13.8658 8.65482 14.1783C8.96738 14.4909 9.39131 14.6665 9.83333 14.6665C10.2754 14.6665 10.6993 14.4909 11.0118 14.1783C11.3244 13.8658 11.5 13.4419 11.5 12.9998V8.83317H14C14.442 8.83317 14.866 8.65758 15.1785 8.34501C15.4911 8.03245 15.6667 7.60853 15.6667 7.1665L14.8333 2.99984C14.7135 2.48861 14.4861 2.04963 14.1855 1.74903C13.8849 1.44843 13.5274 1.30248 13.1667 1.33317H7.33333C6.67029 1.33317 6.03441 1.59656 5.56557 2.0654C5.09673 2.53424 4.83333 3.17013 4.83333 3.83317" stroke="#D33838" stroke-opacity="0.7" stroke-width="1.2" stroke-linecap="round" stroke-linejoin="round"/>
</svg>
