<svg width="70" height="71" viewBox="0 0 70 71" fill="none" xmlns="http://www.w3.org/2000/svg">
<path d="M36.0351 26.7356C38.146 23.5336 40.2569 20.3316 42.3679 17.1296C45.25 12.7578 48.195 10.3799 53.5322 10.4252C58.0146 10.4632 63.5976 12.4639 66.1245 16.4101C69.1858 21.1909 68.1262 28.2228 65.7958 33.1654C59.2125 47.1283 44.5355 54.628 34.3522 65.5506C34.0821 65.8403 31.886 68.7601 31.4532 68.7216C30.7615 68.66 29.8061 67.7303 29.2684 67.3758C27.072 65.9278 25.0973 64.3002 23.1711 62.5052C16.7501 56.5212 10.739 50.0229 6.73152 42.0703C3.74779 36.1494 0.31903 28.4211 2.12582 21.5183C3.75335 15.3003 7.95587 9.11364 13.1964 5.39142C16.3271 3.16775 20.5374 1.0073 24.3957 2.13756C31.2836 4.15531 35.7316 12.9758 36.4179 19.7784C36.7179 22.7521 37.0706 26.131 36.5499 29.1079C36.449 29.6846 36.1507 30.7924 36.3983 31.2298" stroke="#F8D748" stroke-width="3" stroke-linecap="round"/>
</svg>
