<svg width="121" height="53" viewBox="0 0 121 53" fill="none" xmlns="http://www.w3.org/2000/svg">
<path d="M16.822 19.4139L16.5124 12.1658C16.3998 9.1317 16.3435 6.53775 16.3435 4.38392H16.2872C15.6305 6.91232 14.9175 9.35644 14.1482 11.7163L11.8402 19.1048H8.49094L6.46447 11.7725C5.8265 9.46882 5.25421 7.00597 4.74759 4.38392H4.6913C4.59748 7.30563 4.49428 9.91831 4.3817 12.222L4.01581 19.4139H0.0473022L1.25756 0.47895H6.97108L8.82868 6.79995C9.46665 9.08487 10.0014 11.3417 10.433 13.5704H10.5456C11.1272 11.042 11.7277 8.77585 12.3469 6.77186L14.3452 0.47895H19.9743L20.9875 19.4139H16.822Z" fill="black"/>
<path d="M24.3003 0.47895H28.5784V19.4139H24.3003V0.47895Z" fill="black"/>
<path d="M32.3262 19.4139V0.47895H36.6043V15.8179H44.1473V19.4139H32.3262Z" fill="black"/>
<path d="M46.7013 19.4139V0.47895H50.9794V15.8179H58.5223V19.4139H46.7013Z" fill="black"/>
<path d="M61.0763 0.47895H65.3544V19.4139H61.0763V0.47895Z" fill="black"/>
<path d="M77.1518 19.7229H77.1236C74.3841 19.7229 72.2076 18.8145 70.5939 16.9978C68.999 15.1624 68.2015 12.8587 68.2015 10.0869C68.2015 7.22135 69.0459 4.85215 70.7346 2.97926C72.4421 1.10637 74.675 0.169922 77.4332 0.169922C80.2478 0.169922 82.4525 1.08764 84.0474 2.92307C85.6423 4.73977 86.4398 7.01533 86.4398 9.74975C86.4398 12.84 85.586 15.2748 83.8785 17.054C82.1898 18.8333 79.9476 19.7229 77.1518 19.7229ZM77.3206 16.3236H77.3488C78.7748 16.3236 79.8913 15.7243 80.6981 14.5256C81.5049 13.327 81.9084 11.7818 81.9084 9.89022C81.9084 8.11097 81.5049 6.61266 80.6981 5.39528C79.8913 4.17791 78.7748 3.56922 77.3488 3.56922C75.9228 3.56922 74.7969 4.17791 73.9713 5.39528C73.1457 6.61266 72.7329 8.13906 72.7329 9.9745C72.7329 11.8099 73.1457 13.327 73.9713 14.5256C74.7969 15.7243 75.9134 16.3236 77.3206 16.3236Z" fill="black"/>
<path d="M93.189 19.4139H89.2486V0.47895H94.2585L98.1989 7.418C99.2684 9.30962 100.3 11.4728 101.295 13.9076H101.351C101.126 11.6788 101.013 9.03805 101.013 5.98524V0.47895H104.954V19.4139H100.45L96.3975 12.1096C94.9152 9.41263 93.8176 7.18389 93.1045 5.42338H92.992C93.1233 7.78322 93.189 10.5457 93.189 13.7109V19.4139Z" fill="black"/>
<path d="M107.949 18.5149L108.822 15.0032C110.323 15.7898 111.908 16.1831 113.578 16.1831C114.554 16.1831 115.295 16.0052 115.802 15.6494C116.327 15.2748 116.59 14.7691 116.59 14.1323C116.59 13.5517 116.346 13.0648 115.858 12.6715C115.389 12.2782 114.573 11.8848 113.409 11.4915C109.919 10.2554 108.174 8.38254 108.174 5.87287C108.174 4.22473 108.822 2.86688 110.116 1.79934C111.43 0.73179 113.175 0.198017 115.352 0.198017C117.228 0.198017 118.842 0.516407 120.193 1.15319L119.236 4.58058C118.035 3.98125 116.721 3.68159 115.295 3.68159C114.413 3.68159 113.728 3.85951 113.241 4.21536C112.772 4.57121 112.537 5.00198 112.537 5.50766C112.537 6.06952 112.79 6.52838 113.297 6.88423C113.804 7.24008 114.723 7.67084 116.055 8.17652C117.744 8.79458 118.982 9.56246 119.77 10.4802C120.558 11.3792 120.952 12.4935 120.952 13.8233C120.952 15.5089 120.296 16.9135 118.982 18.0373C117.688 19.1423 115.802 19.6948 113.325 19.6948C112.293 19.6948 111.28 19.5824 110.285 19.3577C109.31 19.1142 108.531 18.8333 107.949 18.5149Z" fill="black"/>
<path d="M38.1 52.1891L37.6497 43.8735C37.4433 40.0341 37.3401 37.309 37.3401 35.6984H37.2838C36.3831 38.6013 35.5857 40.9986 34.8914 42.8903L31.5421 52.0768H29.6845L26.5885 43.0588C25.6503 40.2682 24.9279 37.8147 24.4213 35.6984H24.365C24.3087 38.1706 24.1868 40.9612 23.9991 44.0702L23.4925 52.1891H21.1564L22.4793 33.2542H25.6034L28.8401 42.4127C29.5719 44.6039 30.2099 46.739 30.754 48.8179H30.8103C31.2794 47.02 31.9549 44.8849 32.8368 42.4127L36.2143 33.2542H39.3384L40.5205 52.1891H38.1Z" fill="black"/>
<path d="M54.0785 41.2889V43.3117H46.7325V50.1383H54.951V52.1891H44.2557V33.2542H54.5288V35.3051H46.7325V41.2889H54.0785Z" fill="black"/>
<path d="M58.1086 52.133V33.5071C59.8723 33.2449 61.6174 33.1138 63.3436 33.1138C66.7774 33.1138 69.3386 33.9004 71.0273 35.4736C72.8286 37.103 73.7293 39.3692 73.7293 42.2722C73.7293 45.3625 72.8192 47.8159 70.9992 49.6327C69.1416 51.4494 66.3364 52.3577 62.5837 52.3577C60.7261 52.3577 59.2344 52.2828 58.1086 52.133ZM60.5854 35.3051V50.2788C60.9982 50.3537 61.8238 50.3912 63.0622 50.3912C65.6703 50.4099 67.6686 49.7169 69.0571 48.3123C70.4456 46.9076 71.1399 44.9223 71.1399 42.3565C71.1587 40.0716 70.5113 38.2829 69.1979 36.9907C67.9032 35.6984 65.9893 35.0522 63.4562 35.0522C62.3116 35.0522 61.3547 35.1365 60.5854 35.3051Z" fill="black"/>
<path d="M76.8539 33.2542H79.3307V52.1891H76.8539V33.2542Z" fill="black"/>
<path d="M93.4107 46.2334H86.6839L84.7137 52.1891H82.1806L88.6259 33.2542H91.5812L98.0547 52.1891H95.4371L93.4107 46.2334ZM87.1905 44.323H92.904L91.0183 38.8729C90.7744 38.1237 90.4554 36.9719 90.0613 35.4174H89.9769C89.6954 36.6535 89.3859 37.796 89.0481 38.8448L87.1905 44.323Z" fill="black"/>
</svg>
