<svg width="17" height="16" viewBox="0 0 17 16" fill="none" xmlns="http://www.w3.org/2000/svg">
<path d="M4.83333 7.16683V13.8335C4.83333 14.0545 4.74554 14.2665 4.58926 14.4228C4.43298 14.579 4.22101 14.6668 4 14.6668H2.33333C2.11232 14.6668 1.90036 14.579 1.74408 14.4228C1.5878 14.2665 1.5 14.0545 1.5 13.8335V8.00016C1.5 7.77915 1.5878 7.56719 1.74408 7.41091C1.90036 7.25463 2.11232 7.16683 2.33333 7.16683H4.83333ZM4.83333 7.16683C5.71739 7.16683 6.56523 6.81564 7.19036 6.19052C7.81548 5.5654 8.16667 4.71755 8.16667 3.8335V3.00016C8.16667 2.55814 8.34226 2.13421 8.65482 1.82165C8.96738 1.50909 9.39131 1.3335 9.83333 1.3335C10.2754 1.3335 10.6993 1.50909 11.0118 1.82165C11.3244 2.13421 11.5 2.55814 11.5 3.00016V7.16683H14C14.442 7.16683 14.866 7.34242 15.1785 7.65499C15.4911 7.96755 15.6667 8.39147 15.6667 8.8335L14.8333 13.0002C14.7135 13.5114 14.4861 13.9504 14.1855 14.251C13.8849 14.5516 13.5274 14.6975 13.1667 14.6668H7.33333C6.67029 14.6668 6.03441 14.4034 5.56557 13.9346C5.09673 13.4658 4.83333 12.8299 4.83333 12.1668" stroke="#D33838" stroke-opacity="0.7" stroke-width="1.2" stroke-linecap="round" stroke-linejoin="round"/>
</svg>
