<svg width="174" height="17" viewBox="0 0 174 17" fill="none" xmlns="http://www.w3.org/2000/svg">
<path d="M14.0439 16.1112L13.7847 10.043C13.6905 7.50288 13.6433 5.3312 13.6433 3.528H13.5962C13.0464 5.6448 12.4495 7.69104 11.8054 9.66672L9.87316 15.8525H7.06909L5.37251 9.71376C4.8384 7.78512 4.35927 5.7232 3.93513 3.528H3.888C3.80945 5.97408 3.72305 8.16144 3.6288 10.0901L3.32247 16.1112H0L1.01324 0.258721H5.79665L7.35185 5.55072C7.88596 7.46368 8.33367 9.35312 8.69498 11.219H8.78924C9.27622 9.10224 9.77891 7.20496 10.2973 5.5272L11.9703 0.258721H16.6831L17.5313 16.1112H14.0439Z" fill="black"/>
<path d="M20.3049 0.258721H23.8865V16.1112H20.3049V0.258721Z" fill="black"/>
<path d="M27.0242 16.1112V0.258721H30.6059V13.1006H36.9209V16.1112H27.0242Z" fill="black"/>
<path d="M39.0591 16.1112V0.258721H42.6408V13.1006H48.9558V16.1112H39.0591Z" fill="black"/>
<path d="M51.0941 0.258721H54.6757V16.1112H51.0941V0.258721Z" fill="black"/>
<path d="M64.5526 16.3699H64.529C62.2355 16.3699 60.4132 15.6094 59.0623 14.0885C57.727 12.5518 57.0593 10.6232 57.0593 8.30256C57.0593 5.90352 57.7663 3.92 59.1801 2.352C60.6096 0.784 62.479 0 64.7882 0C67.1446 0 68.9904 0.76832 70.3257 2.30496C71.6609 3.82592 72.3286 5.73104 72.3286 8.02032C72.3286 10.6075 71.6138 12.6459 70.1843 14.1355C68.7705 15.6251 66.8932 16.3699 64.5526 16.3699ZM64.694 13.524H64.7175C65.9114 13.524 66.8461 13.0222 67.5216 12.0187C68.1971 11.0152 68.5348 9.7216 68.5348 8.13792C68.5348 6.64832 68.1971 5.39392 67.5216 4.37472C66.8461 3.35552 65.9114 2.84592 64.7175 2.84592C63.5236 2.84592 62.5811 3.35552 61.8899 4.37472C61.1987 5.39392 60.8531 6.67184 60.8531 8.20848C60.8531 9.74512 61.1987 11.0152 61.8899 12.0187C62.5811 13.0222 63.5158 13.524 64.694 13.524Z" fill="black"/>
<path d="M77.9791 16.1112H74.6802V0.258721H78.8745L82.1734 6.06816C83.0688 7.65184 83.9328 9.46288 84.7654 11.5013H84.8125C84.624 9.63536 84.5298 7.42448 84.5298 4.86864V0.258721H87.8287V16.1112H84.0585L80.6653 9.996C79.4243 7.73808 78.5053 5.87216 77.9084 4.39824H77.8141C77.9241 6.37392 77.9791 8.68672 77.9791 11.3366V16.1112Z" fill="black"/>
<path d="M90.3365 15.3586L91.067 12.4186C92.3237 13.0771 93.6512 13.4064 95.0493 13.4064C95.8661 13.4064 96.4866 13.2574 96.9108 12.9595C97.3506 12.6459 97.5706 12.2226 97.5706 11.6894C97.5706 11.2034 97.3664 10.7957 96.9579 10.4664C96.5652 10.1371 95.8819 9.80784 94.9079 9.47856C91.986 8.44368 90.525 6.87568 90.525 4.77456C90.525 3.39472 91.067 2.25792 92.1509 1.36416C93.2506 0.470401 94.7115 0.0235211 96.5338 0.0235211C98.1047 0.0235211 99.4557 0.290081 100.587 0.823201L99.7856 3.69264C98.7802 3.19088 97.6805 2.94 96.4866 2.94C95.7483 2.94 95.1749 3.08896 94.7665 3.38688C94.3738 3.6848 94.1774 4.04544 94.1774 4.4688C94.1774 4.9392 94.3895 5.32336 94.8136 5.62128C95.2378 5.9192 96.0075 6.27984 97.1229 6.7032C98.5367 7.22064 99.5735 7.86352 100.233 8.63184C100.893 9.38448 101.223 10.3174 101.223 11.4307C101.223 12.8419 100.673 14.0179 99.5735 14.9587C98.4896 15.8838 96.9108 16.3464 94.8372 16.3464C93.9732 16.3464 93.1249 16.2523 92.2923 16.0642C91.4755 15.8603 90.8235 15.6251 90.3365 15.3586Z" fill="black"/>
<path d="M123.797 15.9701L123.42 9.00816C123.247 5.79376 123.161 3.51232 123.161 2.16384H123.114C122.359 4.59424 121.692 6.60128 121.111 8.18496L118.307 15.876H116.751L114.159 8.32608C113.374 5.98976 112.769 3.93568 112.345 2.16384H112.298C112.251 4.2336 112.149 6.56992 111.991 9.1728L111.567 15.9701H109.612L110.719 0.1176H113.335L116.044 7.78512C116.657 9.61968 117.191 11.4072 117.647 13.1477H117.694C118.087 11.6424 118.652 9.85488 119.39 7.78512L122.218 0.1176H124.834L125.823 15.9701H123.797Z" fill="black" fill-opacity="0.6"/>
<path d="M137.174 6.84432V8.53776H131.024V14.2531H137.905V15.9701H128.951V0.1176H137.551V1.83456H131.024V6.84432H137.174Z" fill="black" fill-opacity="0.6"/>
<path d="M140.548 15.923V0.32928C142.025 0.10976 143.486 0 144.931 0C147.806 0 149.95 0.65856 151.364 1.97568C152.872 3.33984 153.626 5.23712 153.626 7.66752C153.626 10.2547 152.864 12.3088 151.34 13.8298C149.785 15.3507 147.437 16.1112 144.295 16.1112C142.74 16.1112 141.491 16.0485 140.548 15.923ZM142.622 1.83456V14.3707C142.967 14.4334 143.659 14.4648 144.695 14.4648C146.879 14.4805 148.552 13.9003 149.714 12.7243C150.877 11.5483 151.458 9.88624 151.458 7.73808C151.474 5.82512 150.932 4.32768 149.832 3.24576C148.748 2.16384 147.146 1.62288 145.025 1.62288C144.067 1.62288 143.266 1.69344 142.622 1.83456Z" fill="black" fill-opacity="0.6"/>
<path d="M156.242 0.1176H158.316V15.9701H156.242V0.1176Z" fill="black" fill-opacity="0.6"/>
<path d="M170.103 10.9838H164.472L162.822 15.9701H160.702L166.098 0.1176H168.572L173.991 15.9701H171.8L170.103 10.9838ZM164.896 9.38448H169.679L168.101 4.8216C167.896 4.1944 167.629 3.23008 167.299 1.92864H167.229C166.993 2.96352 166.734 3.92 166.451 4.79808L164.896 9.38448Z" fill="black" fill-opacity="0.6"/>
</svg>
