<svg width="16" height="18" viewBox="0 0 16 18" fill="none" xmlns="http://www.w3.org/2000/svg">
<path d="M15.28 6.88017L9.68 12.4802C9.42 12.7402 9 12.5602 9 12.2002V9.36017C8.88 9.36017 8.76 9.34017 8.66 9.34017C6.1 9.34017 4.02 11.4002 4.02 13.9202C4.02 14.9602 4.38 15.8602 5.1 16.7202C5.38 17.0402 5 17.5402 4.62 17.3402C2.1 16.0602 0.6 13.6802 0.6 10.9802C0.6 6.94017 3.94 3.68017 8.06 3.68017C8.38 3.68017 8.72 3.70017 9 3.74017V1.00017C9 0.640173 9.42 0.460173 9.68 0.720173L15.28 6.32017C15.44 6.48017 15.44 6.72017 15.28 6.88017ZM14.44 6.60017L9.8 1.96017V4.20017C9.8 4.44017 9.58 4.64017 9.32 4.60017C9 4.54017 8.52 4.46017 8.04 4.46017C4.38 4.46017 1.4 7.38017 1.4 10.9802C1.4 12.8002 2.18 14.4802 3.54 15.6602C3.34 15.1202 3.22 14.5402 3.22 13.9402C3.22 10.9602 5.66 8.56017 8.66 8.56017C9.28 8.56017 9.8 8.56017 9.8 9.00017V11.2402L14.44 6.60017Z" fill="#D33838" fill-opacity="0.7" stroke="#D33838" stroke-opacity="0.7" stroke-width="0.4"/>
</svg>
